<?xml version="1.0" encoding="UTF-8" standalone="no"?>
<!-- Generator: Adobe Illustrator 16.0.0, SVG Export Plug-In . SVG Version: 6.00 Build 0)  -->

<svg
   version="1.1"
   id="Layer_1"
   x="0px"
   y="0px"
   width="2400px"
   height="2400px"
   viewBox="0 0 2400 2400"
   enable-background="new 0 0 2400 2400"
   xml:space="preserve"
   sodipodi:docname="hyperspy.svg"
   inkscape:version="1.3 (0e150ed, 2023-07-21)"
   xmlns:inkscape="http://www.inkscape.org/namespaces/inkscape"
   xmlns:sodipodi="http://sodipodi.sourceforge.net/DTD/sodipodi-0.dtd"
   xmlns="http://www.w3.org/2000/svg"
   xmlns:svg="http://www.w3.org/2000/svg"><defs
   id="defs32" /><sodipodi:namedview
   id="namedview32"
   pagecolor="#ffffff"
   bordercolor="#000000"
   borderopacity="0.25"
   inkscape:showpageshadow="2"
   inkscape:pageopacity="0.0"
   inkscape:pagecheckerboard="0"
   inkscape:deskcolor="#d1d1d1"
   showguides="false"
   inkscape:zoom="0.092995671"
   inkscape:cx="-1983.9633"
   inkscape:cy="779.60618"
   inkscape:window-width="1440"
   inkscape:window-height="710"
   inkscape:window-x="0"
   inkscape:window-y="25"
   inkscape:window-maximized="0"
   inkscape:current-layer="g32" />&#10;<g
   id="g32"
   transform="matrix(-1,0,0,1,2399.9999,0)">&#10;	&#10;		&#10;	&#10;		<path
   style="fill:#be3c45;fill-opacity:0.74902;stroke:none;stroke-width:10;stroke-linecap:round;stroke-miterlimit:2.4;stroke-opacity:1;paint-order:stroke fill markers"
   d="M 1414.4553,71.30662 58.912864,175.22081 700.00853,439.32068 822.06184,566.89727 1288.2974,508.03556 Z"
   id="path47"
   sodipodi:nodetypes="cccccc" /><line
   fill="none"
   stroke="#000000"
   stroke-width="30"
   stroke-linecap="round"
   stroke-miterlimit="10"
   x1="26.808001"
   y1="163.479"
   x2="727.74298"
   y2="463.88"
   id="line2" />&#10;	&#10;		<line
   fill="none"
   stroke="#000000"
   stroke-width="30"
   stroke-linecap="round"
   stroke-miterlimit="10"
   x1="727.74298"
   y1="463.88"
   x2="760.22101"
   y2="2344.7759"
   id="line3" />&#10;	&#10;		<line
   fill="none"
   stroke="#000000"
   stroke-width="30"
   stroke-linecap="round"
   stroke-miterlimit="10"
   x1="760.22101"
   y1="2344.7759"
   x2="113.406"
   y2="1676.311"
   id="line4" />&#10;	&#10;		<line
   fill="none"
   stroke="#000000"
   stroke-width="30"
   stroke-linecap="round"
   stroke-miterlimit="10"
   x1="26.808001"
   y1="163.479"
   x2="1431.387"
   y2="55.223999"
   id="line5" />&#10;	&#10;		<line
   fill="none"
   stroke="#000000"
   stroke-width="30"
   stroke-linecap="round"
   stroke-miterlimit="10"
   x1="1431.387"
   y1="55.223999"
   x2="2373.1919"
   y2="282.55801"
   id="line6" />&#10;	&#10;		&#10;	&#10;		<line
   fill="none"
   stroke="#000000"
   stroke-width="30"
   stroke-linecap="round"
   stroke-miterlimit="10"
   x1="2373.1919"
   y1="282.55801"
   x2="2275.761"
   y2="1936.116"
   id="line8" />&#10;	&#10;		&#10;	&#10;		&#10;	&#10;		<line
   fill="none"
   stroke="#000000"
   stroke-width="30"
   stroke-linecap="round"
   stroke-miterlimit="10"
   x1="605.95898"
   y1="1373.212"
   x2="968.604"
   y2="1649.26"
   id="line11" />&#10;	&#10;		<path
   style="color:#000000;fill:#000000;stroke-linecap:round;stroke-miterlimit:10;-inkscape-stroke:none"
   d="m 968.60352,775.84375 a 15,15 0 0 0 -15,15 v 858.41605 a 15,15 0 0 0 15,15 15,15 0 0 0 15,-15 V 790.84375 a 15,15 0 0 0 -15,-15 z"
   id="line12" />&#10;	&#10;		<line
   fill="none"
   stroke="#000000"
   stroke-width="30"
   stroke-linecap="round"
   stroke-miterlimit="10"
   x1="968.604"
   y1="790.84302"
   x2="587.01398"
   y2="610.02502"
   id="line13" />&#10;	&#10;		<line
   fill="none"
   stroke="#000000"
   stroke-width="30"
   stroke-linecap="round"
   stroke-miterlimit="10"
   x1="587.01398"
   y1="610.02502"
   x2="1298.775"
   y2="520.71503"
   id="line14" />&#10;	&#10;		<line
   fill="none"
   stroke="#000000"
   stroke-width="30"
   stroke-linecap="round"
   stroke-miterlimit="10"
   x1="1298.775"
   y1="520.71503"
   x2="1298.775"
   y2="1248.718"
   id="line15" />&#10;	&#10;		<line
   fill="none"
   stroke="#000000"
   stroke-width="30"
   stroke-linecap="round"
   stroke-miterlimit="10"
   x1="605.95898"
   y1="1373.212"
   x2="1298.775"
   y2="1248.718"
   id="line16" />&#10;	&#10;		<line
   fill="none"
   stroke="#000000"
   stroke-width="30"
   stroke-linecap="round"
   stroke-miterlimit="10"
   x1="1298.775"
   y1="520.71503"
   x2="1729.082"
   y2="677.68201"
   id="line17" />&#10;	&#10;		<line
   fill="none"
   stroke="#000000"
   stroke-width="30"
   stroke-linecap="round"
   stroke-miterlimit="10"
   x1="1729.082"
   y1="677.68201"
   x2="968.604"
   y2="790.84302"
   id="line18" />&#10;	&#10;		<line
   fill="none"
   stroke="#000000"
   stroke-width="30"
   stroke-linecap="round"
   stroke-miterlimit="10"
   x1="1729.082"
   y1="677.68201"
   x2="1710.137"
   y2="1486.871"
   id="line19" />&#10;	&#10;		<line
   fill="none"
   stroke="#000000"
   stroke-width="30"
   stroke-linecap="round"
   stroke-miterlimit="10"
   x1="1298.775"
   y1="1248.718"
   x2="1710.137"
   y2="1486.871"
   id="line20" />&#10;	&#10;		&#10;	&#10;		&#10;	&#10;		<g
   id="line23"
   style="fill:#000000"><path
     style="color:#000000;fill:#000000;stroke-linecap:round;stroke-miterlimit:10;-inkscape-stroke:none"
     d="m 1710.137,1486.871 565.624,449.245 M 968.604,1649.26 760.22101,2344.7759 M 968.604,1649.26 1710.137,1486.871 M 760.22101,2344.7759 2275.761,1936.116"
     id="path35" /><path
     style="color:#000000;fill:#000000;stroke-linecap:round;stroke-miterlimit:10;-inkscape-stroke:none"
     d="m 1712.3438,1472.0332 a 15,15 0 0 0 -2.7071,0.3106 15,15 0 0 0 -2.709,-0.125 l -741.53317,162.3886 a 15,15 0 0 0 -0.11719,0.061 15,15 0 0 0 -3.38086,1.748 15,15 0 0 0 -3.4707,1.8711 15,15 0 0 0 -2.08984,3.2637 15,15 0 0 0 -2.03125,3.291 15,15 0 0 0 -0.0703,0.1133 l -208.38281,695.5156 a 15,15 0 0 0 -0.008,0.2402 15,15 0 0 0 -0.11133,3.8536 15,15 0 0 0 0.006,3.8769 15,15 0 0 0 0,0.2402 15,15 0 0 0 1.84375,3.1797 15,15 0 0 0 1.92969,3.3301 15,15 0 0 0 3.30664,2.041 15,15 0 0 0 3.09766,1.9121 15,15 0 0 0 0.23632,0.01 15,15 0 0 0 3.85743,0.1133 15,15 0 0 0 3.88085,-0.01 15,15 0 0 0 0.23633,0 L 2279.666,1950.5996 a 15,15 0 0 0 1.2422,-0.4902 15,15 0 0 0 0.6523,-0.2578 15,15 0 0 0 5.7168,-4.2364 15,15 0 0 0 0.2305,-0.1699 15,15 0 0 0 0.1504,-0.2422 15,15 0 0 0 0.8731,-1.3945 15,15 0 0 0 0.8496,-1.4766 15,15 0 0 0 0.5507,-1.5859 15,15 0 0 0 0.4903,-1.5957 15,15 0 0 0 0.1855,-1.6699 15,15 0 0 0 0.1231,-1.6739 15,15 0 0 0 -0.1914,-1.6562 15,15 0 0 0 -0.252,-1.6641 15,15 0 0 0 -0.043,-0.2754 15,15 0 0 0 -0.1406,-0.2441 15,15 0 0 0 -3.5683,-6.1582 15,15 0 0 0 -0.5,-0.4981 15,15 0 0 0 -0.9454,-0.9414 l -565.623,-449.2441 a 15,15 0 0 0 -2.4961,-1.084 15,15 0 0 0 -3.5059,-1.5215 15,15 0 0 0 -1.121,-0.4863 z m -5.9571,31.0137 536.7656,426.3261 -1460.83199,393.9083 198.11719,-661.2579 z"
     id="path36" /></g>&#10;	&#10;		<line
   fill="none"
   stroke="#000000"
   stroke-width="30"
   stroke-linecap="round"
   stroke-miterlimit="10"
   x1="1729.082"
   y1="677.68201"
   x2="2373.1919"
   y2="282.55801"
   id="line24" />&#10;	&#10;		<line
   fill="none"
   stroke="#000000"
   stroke-width="30"
   stroke-linecap="round"
   stroke-miterlimit="10"
   x1="1298.775"
   y1="520.71503"
   x2="1431.387"
   y2="55.223999"
   id="line25" />&#10;	&#10;		&#10;	&#10;		<line
   fill="none"
   stroke="#000000"
   stroke-width="30"
   stroke-linecap="round"
   stroke-miterlimit="10"
   x1="727.74298"
   y1="463.88"
   x2="968.604"
   y2="790.84302"
   id="line27" />&#10;	&#10;		<path
   id="line28"
   style="color:#000000;fill:#000000;stroke-linecap:round;stroke-miterlimit:10;-inkscape-stroke:none"
   d="m 605.53906,1358.2188 a 15,15 0 0 0 -7.4414,2.2187 l -492.55274,303.0977 a 15,15 0 0 0 -4.91406,20.6367 15,15 0 0 0 20.63672,4.914 l 492.55273,-303.0996 a 15,15 0 0 0 4.91406,-20.6347 15,15 0 0 0 -13.19531,-7.1328 z M 29.041016,148.64648 a 15,15 0 0 0 -13.962891,5.48243 15,15 0 0 0 2.380859,21.08007 L 577.66406,621.75391 a 15,15 0 0 0 21.08008,-2.37891 15,15 0 0 0 -2.38086,-21.08008 L 36.158203,151.75 a 15,15 0 0 0 -7.117187,-3.10352 z M 586.64258,595.0293 a 15,15 0 0 0 -14.62305,15.36718 l 18.94336,763.18752 a 15,15 0 0 0 15.36914,14.623 15,15 0 0 0 14.62305,-15.3672 L 602.00977,609.65234 A 15,15 0 0 0 586.64258,595.0293 Z M 25.951172,148.50391 A 15,15 0 0 0 11.832031,164.33594 L 98.429687,1677.168 a 15,15 0 0 0 15.833983,14.1191 15,15 0 0 0 14.11719,-15.834 L 41.783203,162.62109 A 15,15 0 0 0 25.951172,148.50391 Z" />&#10;	&#10;		<line
   fill="none"
   stroke="#000000"
   stroke-width="30"
   stroke-linecap="round"
   stroke-miterlimit="10"
   x1="113.406"
   y1="1676.311"
   x2="1415.1429"
   y2="1424.626"
   id="line29" />&#10;	&#10;		<line
   fill="none"
   stroke="#000000"
   stroke-width="30"
   stroke-linecap="round"
   stroke-miterlimit="10"
   x1="1415.1429"
   y1="1424.626"
   x2="2275.761"
   y2="1936.116"
   id="line30" />&#10;	&#10;		<line
   fill="none"
   stroke="#000000"
   stroke-width="30"
   stroke-linecap="round"
   stroke-miterlimit="10"
   x1="1415.1429"
   y1="1424.626"
   x2="1431.387"
   y2="55.223999"
   id="line31" />&#10;	&#10;		<line
   fill="none"
   stroke="#000000"
   stroke-width="30"
   stroke-linecap="round"
   stroke-miterlimit="10"
   x1="1298.775"
   y1="1248.718"
   x2="1415.1429"
   y2="1424.626"
   id="line32" />&#10;<path
   style="fill:#119347;fill-opacity:0.74902;stroke:none;stroke-width:10;stroke-linecap:round;stroke-miterlimit:2.4;stroke-opacity:1;paint-order:stroke fill markers"
   d="M 2247.038,1931.6715 1704.0543,1501.69 980.37389,1661.2443 782.41106,2324.8497 Z"
   id="path37"
   sodipodi:nodetypes="ccccc" /><path
   style="fill:#119347;fill-opacity:0.74902;stroke:none;stroke-width:10;stroke-linecap:round;stroke-miterlimit:2.4;stroke-opacity:1;paint-order:stroke fill markers"
   d="m 2265.6548,1911.8332 -539.9636,-428.8707 18.4203,-798.48724 611.9679,-377.03181 z"
   id="path38"
   sodipodi:nodetypes="ccccc" /><path
   style="fill:#119347;fill-opacity:0.74902;stroke:none;stroke-width:10;stroke-linecap:round;stroke-miterlimit:2.4;stroke-opacity:1;paint-order:stroke fill markers"
   d="m 1671.1521,1480.2748 -379.1023,-218.0684 -310.00517,53.9535 -4.13863,320.1597 z"
   id="path39"
   sodipodi:nodetypes="ccccc" /><path
   style="fill:#adc221;fill-opacity:0.87451;stroke:none;stroke-width:10;stroke-linecap:round;stroke-miterlimit:2.4;stroke-opacity:1;paint-order:stroke fill markers"
   d="M 772.04171,2253.0568 956.45934,1647.5192 956.4593,792.37825 742.00283,504.57647 Z"
   id="path40"
   sodipodi:nodetypes="ccccc" /><path
   style="fill:#712daf;fill-opacity:0.74902;stroke:none;stroke-width:10;stroke-linecap:round;stroke-miterlimit:2.4;stroke-opacity:1;paint-order:stroke fill markers"
   d="M 2345.0826,290.27718 1726.8379,661.22405 1315.2981,512.16279 1437.9799,71.983597 Z"
   id="path42"
   sodipodi:nodetypes="ccccc" /><path
   style="fill:#605b82;fill-opacity:0.74902;stroke:none;stroke-width:10;stroke-linecap:round;stroke-miterlimit:2.4;stroke-opacity:1;paint-order:stroke fill markers"
   d="M 1675.8432,674.18819 1295.8548,535.3587 841.16584,592.32236 976.24268,776.17747 Z"
   id="path43"
   sodipodi:nodetypes="ccccc" /><path
   style="fill:#2b7c49;fill-opacity:0.74902;stroke:none;stroke-width:10;stroke-linecap:round;stroke-miterlimit:2.4;stroke-opacity:1;paint-order:stroke fill markers"
   d="m 1697.013,1461.8403 -384.9454,-219.8566 0.3662,-486.63498 400.863,-59.99898 z"
   id="path46"
   sodipodi:nodetypes="ccccc" /><line
   fill="none"
   stroke="#000000"
   stroke-width="30"
   stroke-linecap="round"
   stroke-miterlimit="10"
   x1="727.74298"
   y1="463.88"
   x2="2373.1919"
   y2="282.55801"
   id="line7" /><path
   style="fill:#adc220;fill-opacity:0.87450981;stroke:none;stroke-width:10;stroke-linecap:round;stroke-miterlimit:2.4;stroke-opacity:1;paint-order:stroke fill markers"
   d="m 744.5491,2305.8515 -12.6356,-817.5818 -126.2542,-99.473 -470.08057,290.2639 z"
   id="path48"
   sodipodi:nodetypes="ccccc" /><path
   style="fill:#adc220;fill-opacity:0.87450981;stroke:none;stroke-width:10;stroke-linecap:round;stroke-miterlimit:2.4;stroke-opacity:1;paint-order:stroke fill markers"
   d="m 717.29461,687.5818 -116.18319,-55.42896 19.09225,733.19116 109.83664,84.5792 z"
   id="path49"
   sodipodi:nodetypes="ccccc" /><path
   style="fill:#be4c4d;fill-opacity:0.74902;stroke:none;stroke-width:10;stroke-linecap:round;stroke-miterlimit:2.4;stroke-opacity:1;paint-order:stroke fill markers"
   d="M 125.96458,1651.8779 592.15978,1364.0829 572.40508,618.03057 43.450627,195.96754 Z"
   id="path50"
   sodipodi:nodetypes="ccccc" /><path
   style="fill:#be4c4c;fill-opacity:0.74901962;stroke:none;stroke-width:10;stroke-linecap:round;stroke-miterlimit:2.4;stroke-opacity:1;paint-order:stroke fill markers"
   d="M 716.65066,656.74137 714.1151,473.86612 118.88964,218.93721 603.84427,605.71788 Z"
   id="path51"
   sodipodi:nodetypes="ccccc" /><path
   style="fill:#826e8f;fill-opacity:0.87451;stroke:none;stroke-width:10;stroke-linecap:round;stroke-miterlimit:2.4;stroke-opacity:1;paint-order:stroke fill markers"
   d="m 1285.2456,757.78242 -0.7975,479.03538 -301.59307,52.7985 0.79741,-485.60283 z"
   id="path52"
   sodipodi:nodetypes="ccccc" /><path
   style="fill:#826e8f;fill-opacity:0.87451;stroke:none;stroke-width:10;stroke-linecap:round;stroke-miterlimit:2.4;stroke-opacity:1;paint-order:stroke fill markers"
   d="M 1713.8801,668.46499 2315.542,304.57654 754.5998,476.30858 977.86936,777.18335 Z"
   id="path53"
   sodipodi:nodetypes="ccccc" /></g>&#10;<path
   style="fill:#1ab062;fill-opacity:0.87451;stroke:none;stroke-width:10;stroke-linecap:round;stroke-miterlimit:2.4;stroke-opacity:1;paint-order:stroke fill markers"
   d="m 705.19875,1477.5636 -20.51658,-785.62617 736.16853,110.14795 -4.4471,828.60802 z"
   id="path54"
   sodipodi:nodetypes="ccccc" /></svg>
